<svg width="750" height="400" xmlns="http://www.w3.org/2000/svg">
<defs>
<style type="text/css">
@font-face {
font-family: 'Roboto';
}
text {
font-family: 'Roboto';
}
</style>
</defs>

    <!-- Edges -->
    <line x1="50" y1="100" x2="100" y2="50" stroke="grey" stroke-width="4"/>  <!-- A-B -->
    <line x1="50" y1="100" x2="135" y2="100" stroke="grey" stroke-width="4"/> <!-- A-C -->
    <line x1="50" y1="100" x2="100" y2="150" stroke="grey" stroke-width="4"/> <!-- A-D -->
    <line x1="100" y1="50" x2="170" y2="50" stroke="grey" stroke-width="4"/>  <!-- B-E -->
    <line x1="135" y1="100" x2="220" y2="100" stroke="grey" stroke-width="4"/> <!-- C-F -->
    <line x1="100" y1="150" x2="170" y2="150" stroke="grey" stroke-width="4"/> <!-- D-G -->
    <line x1="170" y1="50" x2="220" y2="100" stroke="grey" stroke-width="4"/> <!-- E-F -->
    <line x1="170" y1="150" x2="220" y2="100" stroke="grey" stroke-width="4"/> <!-- G-F -->

    <!-- Nodes -->
    <circle cx="50" cy="100" r="15" fill="darkred"/>  <!-- A -->
    <text x="50" y="108" font-size="24" fill="white" text-anchor="middle">A</text>

    <circle cx="100" cy="50" r="15" fill="darkred"/>  <!-- B -->
    <text x="100" y="58" font-size="24" fill="white" text-anchor="middle">B</text>

    <circle cx="135" cy="100" r="15" fill="darkred"/> <!-- C -->
    <text x="135" y="108" font-size="24" fill="white" text-anchor="middle">C</text>

    <circle cx="100" cy="150" r="15" fill="darkred"/> <!-- D -->
    <text x="100" y="158" font-size="24" fill="white" text-anchor="middle">D</text>

    <circle cx="170" cy="50" r="15" fill="darkred"/>  <!-- E -->
    <text x="170" y="58" font-size="24" fill="white" text-anchor="middle">E</text>

    <circle cx="220" cy="100" r="15" fill="darkred"/> <!-- F -->
    <text x="220" y="108" font-size="24" fill="white" text-anchor="middle">F</text>

    <circle cx="170" cy="150" r="15" fill="darkred"/> <!-- G -->
    <text x="170" y="158" font-size="24" fill="white" text-anchor="middle">G</text>


    <!-- Weights -->
    <text x="56" y="64" font-size="20">2</text> <!-- A-B -->
    <text x="93" y="90" font-size="20">4</text> <!-- A-C -->
    <text x="56" y="144" font-size="20">2</text> <!-- A-D -->
    <text x="130" y="40" font-size="20">6</text> <!-- B-E -->
    <text x="163" y="90" font-size="20">5</text> <!-- C-F -->
    <text x="130" y="140" font-size="20">3</text> <!-- D-G -->
    <text x="210" y="64" font-size="20">1</text> <!-- E-F -->
    <text x="210" y="144" font-size="20">1</text> <!-- G-F -->

  <!-- Row 1 -->
  <rect x="310" y="10" width="140" height="40" fill="white" stroke="black"/>
  <rect x="450" y="10" width="140" height="40" fill="white" stroke="black"/>
  <rect x="590" y="10" width="140" height="40" fill="white" stroke="black"/>
  <text x="340" y="35" font-size="20" fill="black">Label</text>
  <text x="480" y="35" font-size="20" fill="black">Parents</text>
  <text x="620" y="35" font-size="20" fill="black">Distances</text>

  <!-- Row 2 -->
  <rect x="310" y="50" width="140" height="40" fill="white" stroke="black"/>
  <rect x="450" y="50" width="140" height="40" fill="white" stroke="black"/>
  <rect x="590" y="50" width="140" height="40" fill="white" stroke="black"/>
  <text x="340" y="75" font-size="20" fill="black">A</text>
  <text x="480" y="75" font-size="20" fill="black">null</text>
  <text x="620" y="75" font-size="20" fill="black">MAX</text>

  <!-- Row 3 -->
  <rect x="310" y="90" width="140" height="40" fill="white" stroke="black"/>
  <rect x="450" y="90" width="140" height="40" fill="white" stroke="black"/>
  <rect x="590" y="90" width="140" height="40" fill="white" stroke="black"/>
  <text x="340" y="115" font-size="20" fill="black">B</text>
  <text x="480" y="115" font-size="20" fill="black">null</text>
  <text x="620" y="115" font-size="20" fill="black">MAX</text>

  <!-- Row 4 -->
  <rect x="310" y="130" width="140" height="40" fill="white" stroke="black"/>
  <rect x="450" y="130" width="140" height="40" fill="white" stroke="black"/>
  <rect x="590" y="130" width="140" height="40" fill="white" stroke="black"/>
  <text x="340" y="155" font-size="20" fill="black">C</text>
  <text x="480" y="155" font-size="20" fill="black">null</text>
  <text x="620" y="155" font-size="20" fill="black">MAX</text>

  <!-- Row 5 -->
  <rect x="310" y="170" width="140" height="40" fill="white" stroke="black"/>
  <rect x="450" y="170" width="140" height="40" fill="white" stroke="black"/>
  <rect x="590" y="170" width="140" height="40" fill="white" stroke="black"/>
  <text x="340" y="195" font-size="20" fill="black">D</text>
  <text x="480" y="195" font-size="20" fill="black">null</text>
  <text x="620" y="195" font-size="20" fill="black">MAX</text>

  <!-- Row 6 -->
  <rect x="310" y="210" width="140" height="40" fill="white" stroke="black"/>
  <rect x="450" y="210" width="140" height="40" fill="white" stroke="black"/>
  <rect x="590" y="210" width="140" height="40" fill="white" stroke="black"/>
  <text x="340" y="235" font-size="20" fill="black">E</text>
  <text x="480" y="235" font-size="20" fill="black">null</text>
  <text x="620" y="235" font-size="20" fill="black">MAX</text>

  <!-- Row 7 -->
  <rect x="310" y="250" width="140" height="40" fill="white" stroke="black"/>
  <rect x="450" y="250" width="140" height="40" fill="white" stroke="black"/>
  <rect x="590" y="250" width="140" height="40" fill="white" stroke="black"/>
  <text x="340" y="275" font-size="20" fill="black">F</text>
  <text x="480" y="275" font-size="20" fill="black">null</text>
  <text x="620" y="275" font-size="20" fill="black">MAX</text>

  <!-- Row 8 -->
  <rect x="310" y="290" width="140" height="40" fill="white" stroke="black"/>
  <rect x="450" y="290" width="140" height="40" fill="white" stroke="black"/>
  <rect x="590" y="290" width="140" height="40" fill="white" stroke="black"/>
  <text x="340" y="315" font-size="20" fill="black">G</text>
  <text x="480" y="315" font-size="20" fill="black">null</text>
  <text x="620" y="315" font-size="20" fill="black">MAX</text>
</svg>
